<?xml version="1.0" standalone="no"?><!DOCTYPE svg PUBLIC "-//W3C//DTD SVG 1.1//EN" "http://www.w3.org/Graphics/SVG/1.1/DTD/svg11.dtd"><svg width="100%" height="100%" viewBox="0 0 186 225" version="1.1" xmlns="http://www.w3.org/2000/svg" xmlns:xlink="http://www.w3.org/1999/xlink" xml:space="preserve" style="fill-rule:evenodd;clip-rule:evenodd;stroke-linejoin:round;stroke-miterlimit:1.41421;"><path d="M97.891,0.922c-1.435,-0.002 -2.931,0.058 -4.491,0.182c-39.429,3.176 -28.972,44.831 -29.557,58.78c-0.72,10.201 -2.789,18.24 -9.804,28.212c-8.243,9.802 -19.847,25.666 -25.345,42.18c-2.594,7.794 -3.829,15.738 -2.688,23.257c-0.358,0.32 -0.698,0.655 -1.021,1c-2.42,2.584 -4.208,5.714 -6.2,7.821c-1.862,1.857 -4.514,2.564 -7.428,3.609c-2.916,1.046 -6.117,2.588 -8.06,6.317c0,0 0,0.001 -0.001,0.001c-0.002,0.007 -0.008,0.013 -0.01,0.019c-1.759,3.285 -1.236,7.068 -0.699,10.574c0.537,3.505 1.081,6.817 0.359,9.064c-2.308,6.307 -2.602,10.669 -0.978,13.834c1.628,3.171 4.975,4.57 8.758,5.36c7.565,1.58 17.811,1.188 25.885,5.467l0.695,-1.309l-0.687,1.313c8.644,4.52 17.408,6.125 24.4,4.528c5.069,-1.158 9.184,-4.176 11.297,-8.821c5.469,-0.026 11.47,-2.343 21.083,-2.872c6.521,-0.525 14.668,2.316 24.038,1.795c0.245,1.017 0.6,1.995 1.085,2.924c0.006,0.01 0.01,0.019 0.014,0.028c3.633,7.264 10.382,10.586 17.575,10.019c7.202,-0.569 14.859,-4.815 21.049,-12.182l-1.134,-0.953l1.143,0.943c5.9,-7.154 15.693,-10.12 22.186,-14.037c3.247,-1.958 5.881,-4.41 6.085,-7.971c0.203,-3.56 -1.887,-7.549 -6.692,-12.883l-0.002,-0.002c-0.001,-0.002 -0.004,-0.004 -0.006,-0.008c-1.579,-1.784 -2.332,-5.091 -3.141,-8.613c-0.809,-3.52 -1.712,-7.316 -4.602,-9.776c-0.006,-0.007 -0.012,-0.011 -0.016,-0.015c-1.15,-1.002 -2.345,-1.682 -3.549,-2.139c4.018,-11.914 2.441,-23.778 -1.614,-34.498c-4.977,-13.158 -13.665,-24.622 -20.301,-32.465c-7.428,-9.369 -14.693,-18.264 -14.55,-31.401c0.221,-20.051 2.206,-57.235 -33.078,-57.283l0.002,0.001ZM134.24,153.26c0.424,5.65 3.252,11.339 8.193,12.585c5.493,1.447 13.413,-3.266 16.757,-7.11c0.666,-0.027 1.318,-0.06 1.951,-0.075c2.933,-0.071 5.394,0.097 7.907,2.295l0.017,0.017c1.931,1.636 2.85,4.729 3.646,8.194c0.796,3.464 1.433,7.238 3.821,9.926l0.006,0.008c4.592,5.095 6.067,8.539 5.942,10.737c-0.126,2.198 -1.717,3.829 -4.656,5.602c-5.875,3.543 -16.285,6.625 -22.933,14.678c-5.774,6.871 -12.814,10.644 -19.014,11.134c-6.2,0.489 -11.549,-2.084 -14.702,-8.414l-0.009,-0.014l-0.008,-0.015c-1.956,-3.721 -1.141,-9.595 0.507,-15.79c1.648,-6.195 4.016,-12.556 4.333,-17.726l0,-0.017c0.335,-6.624 0.706,-12.41 1.819,-16.873c1.112,-4.464 2.865,-7.487 5.969,-9.186c0.145,-0.079 0.288,-0.153 0.431,-0.224l0.005,-0.001l0.018,0.269ZM33.402,153.424c0.464,0.002 0.954,0.041 1.476,0.12c3.515,0.532 6.579,2.989 9.532,6.994c2.953,4.005 5.7,9.472 8.524,15.536l0.006,0.017c2.27,4.736 7.059,9.945 11.117,15.258c4.059,5.314 7.2,10.647 6.791,14.729l-0.002,0.019l-0.001,0.019c-0.529,6.962 -4.457,10.752 -10.486,12.129c-6.027,1.377 -14.197,0.009 -22.358,-4.261c-0.003,0 -0.005,0 -0.009,0c-9.029,-4.782 -19.77,-4.307 -26.66,-5.746c-3.446,-0.72 -5.695,-1.802 -6.727,-3.812c-1.032,-2.011 -1.055,-5.518 1.138,-11.498l0.01,-0.027l0.009,-0.027c1.084,-3.345 0.282,-7.006 -0.245,-10.442c-0.526,-3.436 -0.784,-6.561 0.389,-8.739l0.006,-0.011l0.007,-0.01c1.502,-2.895 3.705,-3.93 6.44,-4.911c2.734,-0.982 5.977,-1.752 8.537,-4.318l0.013,-0.013l0.012,-0.012c2.367,-2.497 4.145,-5.627 6.226,-7.849c1.756,-1.875 3.513,-3.117 6.162,-3.135c0.03,0 0.061,0 0.092,0l0.001,-0.01ZM113.815,68.517c3.363,13.258 11.186,32.407 16.214,41.753c2.672,4.958 7.989,15.492 10.286,28.184c1.455,-0.044 3.058,0.167 4.775,0.606c6.005,-15.57 -5.093,-32.341 -10.169,-37.012c-2.049,-1.988 -2.147,-2.879 -1.131,-2.837c5.506,4.869 12.735,14.664 15.365,25.719c1.199,5.041 1.455,10.34 0.168,15.57c0.629,0.262 1.269,0.546 1.917,0.853c9.641,4.694 13.206,8.776 11.492,14.348c-0.565,-0.021 -1.12,-0.017 -1.662,-0.004c-0.051,0.001 -0.101,0.002 -0.151,0.004c1.396,-4.416 -1.697,-7.674 -9.938,-11.402c-8.548,-3.761 -15.36,-3.387 -16.511,4.24c-0.073,0.399 -0.133,0.807 -0.178,1.219c-0.638,0.222 -1.281,0.505 -1.924,0.858c-4.014,2.196 -6.205,6.181 -7.423,11.068c-1.218,4.884 -1.567,10.788 -1.903,17.425c0,0.002 0,0.002 0,0.004c-0.205,3.337 -1.577,7.851 -2.969,12.632c-14.002,9.988 -33.437,14.316 -49.937,3.055c-1.119,-1.769 -2.401,-3.522 -3.722,-5.25c-0.843,-1.104 -1.709,-2.202 -2.57,-3.283c1.694,0 3.133,-0.276 4.297,-0.804c1.447,-0.656 2.464,-1.71 2.967,-3.063c1.006,-2.706 -0.004,-6.523 -3.225,-10.883c-3.22,-4.358 -8.675,-9.278 -16.689,-14.193c0,0 -0.001,0 -0.001,-0.001c-5.888,-3.663 -9.181,-8.153 -10.722,-13.028c-1.542,-4.875 -1.326,-10.147 -0.138,-15.352c2.28,-9.99 8.139,-19.707 11.877,-25.804c1.007,-0.741 0.36,1.374 -3.784,9.069c-3.714,7.036 -10.657,23.273 -1.151,35.947c0.254,-9.02 2.408,-18.219 6.025,-26.823c5.267,-11.94 16.284,-32.644 17.159,-49.146c0.451,0.328 2.001,1.374 2.692,1.767c0.001,0.002 0.002,0.002 0.004,0.002c2.021,1.19 3.539,2.93 5.505,4.51c1.97,1.583 4.43,2.95 8.148,3.167c4.34,0.251 7.647,-1.093 10.357,-2.643c2.705,-1.547 4.867,-3.259 6.915,-3.927c0.002,-0.002 0.006,-0.002 0.008,-0.002c4.327,-1.353 7.768,-3.748 9.725,-6.542l0.002,-0.001ZM141.299,144.418c1.752,-0.008 3.875,0.577 6.199,1.616c6.255,2.888 8.212,5.363 6.505,8.999c-1.439,2.744 -7.598,7.109 -11.819,5.958c-4.308,-1.113 -6.409,-7.32 -5.709,-12.011c0.376,-3.186 2.177,-4.549 4.824,-4.562l0,0ZM87.727,49.69c3.087,-0.013 6.802,1 11.299,3.892c2.762,1.796 4.912,1.946 9.862,4.066l0.012,0.004c2.382,0.977 3.779,2.251 4.462,3.592c0.683,1.341 0.7,2.796 0.128,4.325c-1.143,3.06 -4.792,6.281 -9.913,7.88l-0.004,0.002l-0.004,0.002c-2.497,0.811 -4.674,2.603 -7.241,4.07c-2.566,1.468 -5.471,2.652 -9.42,2.423c0,0 0,0 0,0c-3.362,-0.196 -5.372,-1.337 -7.189,-2.797c-1.817,-1.461 -3.401,-3.296 -5.719,-4.657l-0.007,-0.004l-0.006,-0.004c-3.735,-2.112 -5.774,-4.553 -6.414,-6.67c-0.64,-2.117 -0.039,-3.924 1.814,-5.313c2.083,-1.561 3.531,-2.623 4.495,-3.331c0.957,-0.702 1.356,-0.966 1.661,-1.259c0.001,-0.002 0.002,-0.002 0.004,-0.004l0.002,-0.002c1.565,-1.482 4.06,-4.182 7.822,-5.476c1.295,-0.446 2.74,-0.734 4.357,-0.74l-0.001,0.001ZM109.314,62.457c-1.333,0.079 -2.728,0.765 -4.352,1.672c-1.625,0.907 -3.452,2.067 -5.431,3.21c-3.96,2.285 -8.518,4.47 -13.048,4.47c-4.536,0 -8.161,-2.095 -10.88,-4.25c-1.359,-1.077 -2.481,-2.162 -3.377,-3.001c-0.448,-0.42 -0.837,-0.778 -1.2,-1.057c-0.362,-0.279 -0.657,-0.556 -1.264,-0.556l-0.029,1.275c-0.044,0.426 -0.088,0.413 -0.071,0.425c0.029,0.018 0.169,0.067 0.334,0.193c0.266,0.206 0.636,0.541 1.076,0.952c0.878,0.823 2.046,1.954 3.483,3.093c2.874,2.278 6.872,4.615 11.928,4.615c5.064,0 9.855,-2.367 13.892,-4.697c2.018,-1.165 3.851,-2.327 5.41,-3.197c1.559,-0.871 2.87,-1.416 3.629,-1.462l-0.1,-1.685l0,0ZM75.264,33.982c1.328,0.003 2.517,0.447 3.746,1.429c1.334,1.065 2.341,2.427 3.185,4.346c0.844,1.919 1.295,3.837 1.42,6.101l0,0.019c0.06,0.951 0.053,1.846 -0.022,2.713c-0.263,0.075 -0.52,0.155 -0.772,0.242c-1.432,0.493 -2.695,1.165 -3.795,1.891c0.108,-0.76 0.124,-1.53 0.042,-2.39c-0.011,-0.048 -0.011,-0.086 -0.011,-0.134c-0.115,-1.142 -0.355,-2.101 -0.758,-3.07c-0.431,-1.007 -0.911,-1.717 -1.544,-2.264c-0.574,-0.496 -1.116,-0.723 -1.713,-0.719c-0.061,0 -0.124,0.002 -0.187,0.008c-0.671,0.058 -1.228,0.384 -1.755,1.027c-0.528,0.643 -0.873,1.439 -1.123,2.494c-0.249,1.055 -0.316,2.092 -0.211,3.281c0,0.048 0.01,0.087 0.01,0.134c0.116,1.152 0.346,2.111 0.758,3.08c0.422,0.998 0.912,1.708 1.545,2.254c0.106,0.092 0.211,0.174 0.315,0.248c-0.658,0.507 -0.973,0.74 -1.513,1.137c-0.346,0.254 -0.758,0.556 -1.237,0.909c-1.045,-0.978 -1.86,-2.209 -2.573,-3.829c-0.844,-1.918 -1.295,-3.837 -1.429,-6.101l0,-0.019c-0.125,-2.264 0.095,-4.211 0.719,-6.226c0.624,-2.015 1.458,-3.473 2.667,-4.672c1.209,-1.199 2.427,-1.804 3.895,-1.88c0.115,-0.006 0.228,-0.009 0.341,-0.009l0,0ZM102.667,31.813c2.003,0 3.712,0.587 5.469,1.862c1.784,1.295 3.07,2.916 4.106,5.18c1.017,2.207 1.506,4.365 1.554,6.927c0,0.067 0,0.124 0.019,0.192c0.018,2.628 -0.432,4.863 -1.43,7.147c-0.569,1.303 -1.223,2.396 -2.005,3.343c-0.266,-0.128 -0.542,-0.25 -0.828,-0.368c-1.984,-0.85 -3.505,-1.39 -4.773,-1.83c0.459,-0.553 0.842,-1.208 1.179,-2.028c0.508,-1.237 0.758,-2.446 0.806,-3.885c0,-0.057 0.018,-0.106 0.018,-0.173c0.029,-1.381 -0.153,-2.561 -0.556,-3.77c-0.422,-1.266 -0.96,-2.178 -1.737,-2.935c-0.777,-0.758 -1.554,-1.104 -2.484,-1.133c-0.044,-0.002 -0.087,-0.002 -0.13,-0.002c-0.876,0.002 -1.636,0.303 -2.422,0.962c-0.825,0.69 -1.439,1.573 -1.948,2.801c-0.508,1.228 -0.758,2.446 -0.806,3.895c-0.01,0.057 -0.01,0.106 -0.01,0.163c-0.016,0.796 0.034,1.526 0.157,2.234c-1.791,-0.892 -3.479,-1.501 -5.063,-1.878c-0.091,-0.685 -0.143,-1.392 -0.159,-2.131l0,-0.201c-0.029,-2.619 0.403,-4.864 1.41,-7.147c1.007,-2.284 2.254,-3.924 4.01,-5.258c1.756,-1.333 3.482,-1.947 5.526,-1.966c0.032,0 0.064,0 0.095,0l0.002,-0.001Z" style="fill:#2b2d3e;"/></svg>