<?xml version="1.0" standalone="no"?><!DOCTYPE svg PUBLIC "-//W3C//DTD SVG 1.1//EN" "http://www.w3.org/Graphics/SVG/1.1/DTD/svg11.dtd"><svg width="100%" height="100%" viewBox="0 0 228 219" version="1.1" xmlns="http://www.w3.org/2000/svg" xmlns:xlink="http://www.w3.org/1999/xlink" xml:space="preserve" style="fill-rule:evenodd;clip-rule:evenodd;stroke-linejoin:round;stroke-miterlimit:1.41421;"><path d="M69.777,216.841c-39.97,-17.11 -68.004,-56.814 -68.004,-103.014c0,-61.814 50.186,-112 112,-112c61.815,0 112,50.186 112,112c0,46.2 -28.033,85.904 -68.003,103.014l-26.708,-75.618c9.076,-5.743 15.108,-15.87 15.108,-27.396c0,-17.88 -14.516,-32.396 -32.397,-32.396c-17.88,0 -32.396,14.516 -32.396,32.396c0,11.526 6.031,21.653 15.108,27.396l-26.708,75.618Z" style="fill:none;stroke-width:2px;stroke:url(#_Linear1);"/><defs><linearGradient id="_Linear1" x1="0" y1="0" x2="1" y2="0" gradientUnits="userSpaceOnUse" gradientTransform="matrix(224,0,0,215.014,1.77344,109.334)"><stop offset="0%" style="stop-color:#fca73e;stop-opacity:1"/><stop offset="100%" style="stop-color:#ff442b;stop-opacity:1"/></linearGradient></defs></svg>