<?xml version="1.0" standalone="no"?><!DOCTYPE svg PUBLIC "-//W3C//DTD SVG 1.1//EN" "http://www.w3.org/Graphics/SVG/1.1/DTD/svg11.dtd"><svg width="100%" height="100%" viewBox="0 0 273 230" version="1.1" xmlns="http://www.w3.org/2000/svg" xmlns:xlink="http://www.w3.org/1999/xlink" xml:space="preserve" style="fill-rule:evenodd;clip-rule:evenodd;stroke-linejoin:round;stroke-miterlimit:1.41421;"><g><path d="M157.403,49.614l24.364,0l0,24.905l12.319,0c5.689,0 11.54,-1.013 16.928,-2.839c2.647,-0.897 5.618,-2.146 8.229,-3.717c-3.439,-4.491 -5.195,-10.161 -5.712,-15.75c-0.702,-7.601 0.832,-17.495 5.977,-23.445l2.561,-2.962l3.051,2.453c7.684,6.173 14.146,14.799 15.285,24.632c9.252,-2.721 20.114,-2.077 28.269,2.629l3.346,1.931l-1.761,3.437c-6.897,13.46 -21.316,17.63 -35.412,16.892c-21.094,52.538 -67.017,77.411 -122.7,77.411c-28.767,0 -55.16,-10.754 -70.19,-36.277l-0.246,-0.416l-2.19,-4.455c-5.08,-11.235 -6.768,-23.543 -5.623,-35.84l0.343,-3.684l20.834,0l0,-24.905l24.363,0l0,-24.365l48.728,0l0,-24.363l29.237,0l0,48.728Z" style="fill:#394d55;"/><path d="M236.338,58.827c1.634,-12.695 -7.867,-22.668 -13.76,-27.403c-6.79,7.851 -7.845,28.425 2.808,37.088c-5.945,5.28 -18.473,10.067 -31.3,10.067l-156.143,0c-1.248,13.39 1.103,25.72 6.472,36.275l1.776,3.249c1.125,1.909 2.354,3.751 3.682,5.524l0,0c6.419,0.412 12.338,0.555 17.753,0.435c0,0 0.001,0 0.002,0c10.641,-0.236 19.324,-1.491 25.904,-3.771c0.98,-0.341 2.048,0.179 2.387,1.157c0.338,0.979 -0.18,2.047 -1.159,2.387c-0.874,0.303 -1.787,0.586 -2.729,0.856c-0.001,0 -0.002,0 -0.003,0.001c-5.182,1.479 -10.738,2.475 -17.907,2.917c0.426,0.007 -0.443,0.064 -0.445,0.065c-0.244,0.014 -0.551,0.049 -0.796,0.063c-2.821,0.158 -5.867,0.191 -8.98,0.191c-3.405,0 -6.759,-0.064 -10.508,-0.254l-0.096,0.063c13.01,14.623 33.353,23.393 58.851,23.393c53.966,0 99.74,-23.923 120.009,-77.63c14.381,1.476 28.202,-2.191 34.488,-14.463c-10.014,-5.779 -22.891,-3.937 -30.306,-0.21Z" style="fill:#0faadb;fill-rule:nonzero;"/><path d="M236.338,58.827c1.634,-12.695 -7.867,-22.668 -13.76,-27.403c-6.79,7.851 -7.845,28.425 2.808,37.088c-5.945,5.28 -18.473,10.067 -31.3,10.067l-146.897,0c-0.638,20.506 6.972,36.072 20.437,45.483c0,0 0.001,0 0.002,0c10.641,-0.236 19.324,-1.491 25.904,-3.771c0.98,-0.341 2.048,0.179 2.387,1.157c0.338,0.979 -0.18,2.047 -1.159,2.387c-0.874,0.303 -1.787,0.586 -2.729,0.856c-0.001,0 -0.002,0 -0.003,0.001c-5.182,1.479 -11.215,2.603 -18.384,3.045c-0.002,0 -0.174,-0.166 -0.176,-0.166c18.366,9.421 44.996,9.388 75.528,-2.341c34.235,-13.152 66.091,-38.208 88.32,-66.867c-0.336,0.151 -0.662,0.306 -0.978,0.464Z" style="fill:#22b8eb;fill-rule:nonzero;"/><path d="M38.235,94.848c0.97,7.172 3.068,13.888 6.18,20.006l1.776,3.249c1.125,1.909 2.354,3.751 3.682,5.524c6.42,0.412 12.34,0.555 17.755,0.435c10.641,-0.236 19.324,-1.491 25.904,-3.771c0.98,-0.341 2.048,0.179 2.387,1.157c0.338,0.979 -0.18,2.047 -1.159,2.387c-0.874,0.303 -1.787,0.586 -2.729,0.856c-0.001,0 -0.002,0 -0.003,0.001c-5.182,1.479 -11.183,2.539 -18.352,2.982c-0.246,0.014 -0.675,0.017 -0.924,0.031c-2.82,0.159 -5.834,0.255 -8.948,0.255c-3.404,0 -6.886,-0.065 -10.634,-0.255c13.009,14.623 33.479,23.425 58.977,23.425c46.2,0 86.395,-17.536 109.724,-56.282l-183.636,0Z" style="fill:#0c8bb9;fill-rule:nonzero;"/><path d="M48.594,94.848c2.762,12.593 9.399,22.48 19.034,29.214c10.641,-0.236 19.324,-1.491 25.904,-3.771c0.98,-0.341 2.048,0.179 2.387,1.157c0.338,0.979 -0.18,2.047 -1.159,2.387c-0.874,0.303 -1.787,0.586 -2.729,0.856c-0.001,0 -0.002,0 -0.003,0.001c-5.182,1.479 -11.311,2.539 -18.48,2.982c18.365,9.419 44.919,9.283 75.448,-2.444c18.47,-7.096 36.245,-17.66 52.193,-30.382l-152.595,0Z" style="fill:#129bc6;fill-rule:nonzero;"/><path d="M59.136,53.674l21.115,0l0,21.116l-21.115,0l0,-21.116ZM60.894,55.434l1.667,0l0,17.597l-1.667,0l0,-17.597ZM64.027,55.434l1.733,0l0,17.597l-1.733,0l0,-17.597ZM67.226,55.434l1.733,0l0,17.597l-1.733,0l0,-17.597ZM70.426,55.434l1.733,0l0,17.597l-1.733,0l0,-17.597ZM73.626,55.434l1.733,0l0,17.597l-1.733,0l0,-17.597ZM76.825,55.434l1.667,0l0,17.597l-1.667,0l0,-17.597Z" style="fill:#07acd3;"/><path d="M83.498,29.31l21.117,0l0,21.115l-21.117,0l0,-21.115ZM85.259,31.07l1.665,0l0,17.596l-1.665,0l0,-17.596ZM88.392,31.07l1.732,0l0,17.596l-1.732,0l0,-17.596ZM91.59,31.07l1.733,0l0,17.596l-1.733,0l0,-17.596ZM94.79,31.07l1.733,0l0,17.596l-1.733,0l0,-17.596ZM97.989,31.07l1.734,0l0,17.596l-1.734,0l0,-17.596ZM101.188,31.07l1.669,0l0,17.596l-1.669,0l0,-17.596Z" style="fill:#07acd3;"/><path d="M83.498,53.674l21.117,0l0,21.116l-21.117,0l0,-21.116ZM85.259,55.434l1.665,0l0,17.597l-1.665,0l0,-17.597ZM88.392,55.434l1.732,0l0,17.597l-1.732,0l0,-17.597ZM91.59,55.434l1.733,0l0,17.597l-1.733,0l0,-17.597ZM94.79,55.434l1.733,0l0,17.597l-1.733,0l0,-17.597ZM97.989,55.434l1.734,0l0,17.597l-1.734,0l0,-17.597ZM101.188,55.434l1.669,0l0,17.597l-1.669,0l0,-17.597Z" style="fill:#1ec3f0;"/><path d="M107.863,53.674l21.116,0l0,21.116l-21.116,0l0,-21.116ZM109.623,55.434l1.665,0l0,17.597l-1.665,0l0,-17.597ZM112.755,55.434l1.733,0l0,17.597l-1.733,0l0,-17.597ZM115.955,55.434l1.733,0l0,17.597l-1.733,0l0,-17.597ZM119.154,55.434l1.733,0l0,17.597l-1.733,0l0,-17.597ZM122.353,55.434l1.735,0l0,17.597l-1.735,0l0,-17.597ZM125.553,55.434l1.666,0l0,17.597l-1.666,0l0,-17.597Z" style="fill:#07acd3;"/><path d="M107.863,29.31l21.116,0l0,21.115l-21.116,0l0,-21.115ZM109.623,31.07l1.665,0l0,17.596l-1.665,0l0,-17.596ZM112.755,31.07l1.733,0l0,17.596l-1.733,0l0,-17.596ZM115.955,31.07l1.733,0l0,17.596l-1.733,0l0,-17.596ZM119.154,31.07l1.733,0l0,17.596l-1.733,0l0,-17.596ZM122.353,31.07l1.735,0l0,17.596l-1.735,0l0,-17.596ZM125.553,31.07l1.666,0l0,17.596l-1.666,0l0,-17.596Z" style="fill:#1ec3f0;"/><path d="M132.227,53.674l21.116,0l0,21.116l-21.116,0l0,-21.116ZM133.987,55.434l1.666,0l0,17.597l-1.666,0l0,-17.597ZM137.12,55.434l1.733,0l0,17.597l-1.733,0l0,-17.597ZM140.318,55.434l1.733,0l0,17.597l-1.733,0l0,-17.597ZM143.518,55.434l1.734,0l0,17.597l-1.734,0l0,-17.597ZM146.718,55.434l1.733,0l0,17.597l-1.733,0l0,-17.597ZM149.917,55.434l1.667,0l0,17.597l-1.667,0l0,-17.597Z" style="fill:#1ec3f0;"/><path d="M132.227,29.31l21.116,0l0,21.115l-21.116,0l0,-21.115ZM133.987,31.07l1.666,0l0,17.596l-1.666,0l0,-17.596ZM137.12,31.07l1.733,0l0,17.596l-1.733,0l0,-17.596ZM140.318,31.07l1.733,0l0,17.596l-1.733,0l0,-17.596ZM143.518,31.07l1.734,0l0,17.596l-1.734,0l0,-17.596ZM146.718,31.07l1.733,0l0,17.596l-1.733,0l0,-17.596ZM149.917,31.07l1.667,0l0,17.596l-1.667,0l0,-17.596Z" style="fill:#07acd3;"/><path d="M132.227,4.946l21.116,0l0,21.116l-21.116,0l0,-21.116ZM133.987,6.705l1.666,0l0,17.597l-1.666,0l0,-17.597ZM137.12,6.705l1.733,0l0,17.597l-1.733,0l0,-17.597ZM140.318,6.705l1.733,0l0,17.597l-1.733,0l0,-17.597ZM143.518,6.705l1.734,0l0,17.597l-1.734,0l0,-17.597ZM146.718,6.705l1.733,0l0,17.597l-1.733,0l0,-17.597ZM149.917,6.705l1.667,0l0,17.597l-1.667,0l0,-17.597Z" style="fill:#1ec3f0;"/><path d="M156.591,53.674l21.116,0l0,21.116l-21.116,0l0,-21.116ZM158.349,55.434l1.668,0l0,17.597l-1.668,0l0,-17.597ZM161.482,55.434l1.733,0l0,17.597l-1.733,0l0,-17.597ZM164.682,55.434l1.734,0l0,17.597l-1.734,0l0,-17.597ZM167.881,55.434l1.733,0l0,17.597l-1.733,0l0,-17.597ZM171.082,55.434l1.732,0l0,17.597l-1.732,0l0,-17.597ZM174.281,55.434l1.666,0l0,17.597l-1.666,0l0,-17.597Z" style="fill:#07acd3;"/><path d="M103.293,109.025c3.217,0 5.825,2.609 5.825,5.826c0,3.216 -2.608,5.824 -5.825,5.824c-3.217,0 -5.825,-2.608 -5.825,-5.824c0,-3.217 2.608,-5.826 5.825,-5.826Z" style="fill:#d3edf2;"/><path d="M103.293,110.678c0.533,0 1.042,0.1 1.511,0.282c-0.509,0.294 -0.853,0.845 -0.853,1.475c0,0.94 0.763,1.701 1.703,1.701c0.644,0 1.204,-0.358 1.493,-0.886c0.205,0.492 0.318,1.033 0.318,1.601c0,2.303 -1.867,4.171 -4.172,4.171c-2.303,0 -4.172,-1.868 -4.172,-4.171c0,-2.305 1.869,-4.173 4.172,-4.173Z" style="fill:#394d55;"/><path d="M0.256,96.954l270.985,0c-5.9,-1.497 -18.669,-3.519 -16.563,-11.252c-10.729,12.415 -36.603,8.71 -43.133,2.588c-7.271,10.547 -49.603,6.538 -52.556,-1.678c-9.116,10.698 -37.364,10.698 -46.48,0c-2.954,8.216 -45.286,12.225 -52.558,1.678c-6.53,6.122 -32.401,9.827 -43.131,-2.588c2.105,7.733 -10.663,9.755 -16.564,11.252Z" style="fill:#394d55;"/><path d="M118.779,151.004c-14.427,-6.846 -22.345,-16.152 -26.751,-26.312c-5.359,1.53 -11.801,2.507 -19.285,2.927c-2.82,0.158 -5.785,0.239 -8.898,0.239c-3.588,0 -7.37,-0.106 -11.339,-0.316c13.23,13.222 29.506,23.402 59.641,23.588c2.225,0 4.434,-0.044 6.632,-0.126Z" style="fill:#bfdce0;fill-rule:nonzero;"/><path d="M97.387,134.066c-1.997,-2.709 -3.933,-6.114 -5.356,-9.375c-5.359,1.53 -11.803,2.508 -19.288,2.928c5.141,2.791 12.495,5.378 24.644,6.447Z" style="fill:#d3edf2;fill-rule:nonzero;"/><path d="M41.402,186.265l0,-17.434c0,-2.289 1.432,-4.131 3.803,-4.131l0.658,0c2.37,0 3.796,1.843 3.796,4.131l0,36.704c0,8.951 -4.423,16.072 -12.128,20.609c-3.573,2.102 -7.52,3.181 -11.662,3.181l-1.637,0c-8.952,0 -16.066,-4.426 -20.61,-12.127c-2.108,-3.575 -3.179,-7.517 -3.179,-11.663l0,-1.636c0,-8.953 4.425,-16.071 12.124,-20.616c3.575,-2.11 7.517,-3.18 11.665,-3.18l1.637,0c6.058,0 11.199,2.348 15.533,6.162ZM8.698,204.716c0,6.465 3.134,11.326 8.8,14.425c2.29,1.254 4.778,1.927 7.391,1.927c6.346,0 11.053,-2.993 14.3,-8.371c1.51,-2.502 2.213,-5.238 2.213,-8.149c0,-5.605 -2.654,-9.978 -7.17,-13.227c-2.738,-1.969 -5.821,-2.957 -9.182,-2.957c-6.917,0 -11.895,3.494 -14.883,9.702c-1.008,2.099 -1.469,4.328 -1.469,6.65ZM78.301,180.103l1.145,0c9.566,0 16.84,4.64 21.451,12.99c1.844,3.341 2.83,6.986 2.83,10.806l0,1.636c0,8.95 -4.413,16.082 -12.131,20.61c-3.573,2.095 -7.519,3.18 -11.66,3.18l-1.635,0c-8.952,0 -16.066,-4.426 -20.609,-12.127c-2.108,-3.575 -3.182,-7.517 -3.182,-11.663l0,-1.636c0,-8.955 4.441,-16.048 12.122,-20.613c3.571,-2.123 7.52,-3.183 11.669,-3.183ZM62.766,204.716c0,6.275 3.08,10.892 8.381,14.138c2.489,1.525 5.23,2.214 8.138,2.214c6.201,0 10.785,-3.144 13.975,-8.378c1.522,-2.495 2.21,-5.236 2.21,-8.142c0,-5.835 -2.811,-10.293 -7.616,-13.524c-2.634,-1.772 -5.565,-2.66 -8.736,-2.66c-6.917,0 -11.895,3.494 -14.881,9.702c-1.011,2.099 -1.471,4.328 -1.471,6.65ZM138.051,189.024c-1.247,-0.584 -3.581,-0.778 -4.928,-0.829c-6.898,-0.26 -11.889,3.625 -14.817,9.71c-1.01,2.099 -1.472,4.321 -1.472,6.643c0,7.072 3.713,12.023 10.025,15.041c2.306,1.102 5.283,1.312 7.803,1.312c2.217,0 5.349,-1.358 7.316,-2.293l0.341,-0.161l1.526,0l0.168,0.034c1.878,0.39 3.296,1.581 3.296,3.601l0,0.818c0,5.026 -9.187,6.177 -12.693,6.422c-12.37,0.856 -21.622,-5.938 -25.149,-17.738c-0.613,-2.048 -0.888,-4.083 -0.888,-6.218l0,-1.634c0,-8.954 4.442,-16.045 12.121,-20.607c3.571,-2.121 7.52,-3.186 11.669,-3.186l1.636,0c4.4,0 8.453,1.25 12.087,3.732l0.299,0.206l0.188,0.311c0.392,0.651 0.73,1.402 0.73,2.177l0,0.817c0,2.107 -1.577,3.241 -3.481,3.608l-0.157,0.028l-0.488,0c-1.233,0 -4.033,-1.276 -5.132,-1.794ZM164.83,194.615c3.207,-3.211 6.426,-6.417 9.68,-9.575c0.907,-0.881 4.342,-4.61 5.693,-4.61l1.48,0l0.168,0.034c1.883,0.392 3.294,1.584 3.294,3.609l0,0.816c0,1.381 -1.617,2.985 -2.509,3.93c-1.897,2.011 -3.894,3.956 -5.835,5.925l-9.975,10.126c4.295,4.304 8.586,8.613 12.846,12.95c1.178,1.2 2.357,2.401 3.517,3.618c0.41,0.432 1.016,0.969 1.36,1.567c0.369,0.56 0.596,1.192 0.596,1.866l0,0.854l-0.048,0.196c-0.464,1.883 -1.659,3.404 -3.747,3.404l-0.656,0c-1.367,0 -2.909,-1.546 -3.845,-2.429c-1.927,-1.818 -3.79,-3.729 -5.68,-5.586l-6.339,-6.222l0,9.945c0,2.29 -1.434,4.131 -3.802,4.131l-0.651,0c-2.371,0 -3.803,-1.841 -3.803,-4.131l0,-56.041c0,-2.292 1.433,-4.124 3.803,-4.124l0.651,0c2.368,0 3.802,1.832 3.802,4.124l0,25.623ZM267.733,180.43l0.82,0c2.476,0 4.129,1.669 4.129,4.13c0,3.419 -3.268,4.293 -6.095,4.293c-3.708,0 -7.248,2.245 -9.804,4.763c-3.187,3.142 -4.583,7.167 -4.583,11.59l0,19.988c0,2.292 -1.43,4.131 -3.804,4.131l-0.651,0c-2.373,0 -3.802,-1.839 -3.802,-4.131l0,-21.135c0,-8.116 3.951,-14.741 10.536,-19.387c3.934,-2.776 8.439,-4.242 13.254,-4.242ZM209.051,220.041c3.005,1.049 6.431,0.899 9.513,0.362c1.576,-0.67 5.609,-2.429 7.092,-2.171l0.232,0.039l0.213,0.105c0.905,0.438 1.77,1.059 2.232,1.98c1.08,2.161 0.561,4.332 -1.561,5.558l-0.707,0.408c-7.832,4.521 -16.161,3.894 -23.968,-0.328c-3.732,-2.017 -6.588,-5.013 -8.694,-8.664l-0.493,-0.854c-5.027,-8.706 -4.349,-17.866 1.321,-26.146c1.958,-2.862 4.516,-5.073 7.507,-6.802l1.132,-0.653c7.375,-4.257 15.28,-3.966 22.855,-0.229c4.073,2.009 7.373,5.005 9.647,8.944l0.409,0.709c1.652,2.862 -0.488,5.356 -2.697,7.06c-2.564,1.978 -5.152,4.358 -7.609,6.479c-5.478,4.729 -10.949,9.469 -16.424,14.203ZM201.96,215.061c6.128,-5.254 12.257,-10.512 18.366,-15.787c2.088,-1.8 4.378,-3.669 6.45,-5.563c-1.662,-2.095 -4.439,-3.605 -6.798,-4.505c-4.762,-1.815 -9.458,-1.205 -13.825,1.316c-5.717,3.301 -8.152,8.557 -7.938,15.099c0.084,2.575 0.777,5.058 2.145,7.25c0.481,0.772 1.019,1.498 1.6,2.19Z" style="fill:#394d55;"/></g></svg>