<?xml version="1.0" standalone="no"?><!DOCTYPE svg PUBLIC "-//W3C//DTD SVG 1.1//EN" "http://www.w3.org/Graphics/SVG/1.1/DTD/svg11.dtd"><svg width="100%" height="100%" viewBox="0 0 283 151" version="1.1" xmlns="http://www.w3.org/2000/svg" xmlns:xlink="http://www.w3.org/1999/xlink" xml:space="preserve" style="fill-rule:evenodd;clip-rule:evenodd;stroke-linecap:round;stroke-linejoin:round;stroke-miterlimit:1;"><g><path d="M282.216,10.857c0,-5.44 -4.417,-9.857 -9.857,-9.857l-260.987,0c-5.441,0 -9.858,4.417 -9.858,9.857l0,19.715c0,5.441 4.417,9.858 9.858,9.858l260.987,0c5.44,0 9.857,-4.417 9.857,-9.858l0,-19.715Z" style="fill:none;stroke-width:1px;stroke:url(#_Linear1);"/><path d="M73.629,65.309c0,-5.441 -4.417,-9.858 -9.858,-9.858l-52.399,0c-5.441,0 -9.858,4.417 -9.858,9.858l0,19.715c0,5.44 4.417,9.857 9.858,9.857l52.399,0c5.441,0 9.858,-4.417 9.858,-9.857l0,-19.715Z" style="fill:none;stroke-width:1px;stroke:url(#_Linear2);"/><path d="M161.486,65.309c0,-5.441 -4.417,-9.858 -9.858,-9.858l-52.399,0c-5.441,0 -9.858,4.417 -9.858,9.858l0,19.715c0,5.44 4.417,9.857 9.858,9.857l52.399,0c5.441,0 9.858,-4.417 9.858,-9.857l0,-19.715Z" style="fill:none;stroke-width:1px;stroke:url(#_Linear3);"/><path d="M182.784,58.375c0,-1.614 -1.31,-2.924 -2.923,-2.924l-5.848,0c-1.613,0 -2.923,1.31 -2.923,2.924l0,33.583c0,1.613 1.31,2.923 2.923,2.923l5.848,0c1.613,0 2.923,-1.31 2.923,-2.923l0,-33.583Z" style="fill:none;stroke-width:1px;stroke:url(#_Linear4);"/><path d="M218.282,56.689c0,-0.683 -0.555,-1.238 -1.238,-1.238l-2.476,0c-0.683,0 -1.238,0.555 -1.238,1.238l0,36.954c0,0.684 0.555,1.238 1.238,1.238l2.476,0c0.683,0 1.238,-0.554 1.238,-1.238l0,-36.954Z" style="fill:none;stroke-width:1px;stroke:url(#_Linear5);"/><path d="M232.269,56.689c0,-0.683 -0.555,-1.238 -1.238,-1.238l-2.476,0c-0.683,0 -1.238,0.555 -1.238,1.238l0,36.954c0,0.684 0.555,1.238 1.238,1.238l2.476,0c0.683,0 1.238,-0.554 1.238,-1.238l0,-36.954Z" style="fill:none;stroke-width:1px;stroke:url(#_Linear6);"/><path d="M246.271,56.689c0,-0.683 -0.554,-1.238 -1.238,-1.238l-2.476,0c-0.683,0 -1.238,0.555 -1.238,1.238l0,36.954c0,0.684 0.555,1.238 1.238,1.238l2.476,0c0.684,0 1.238,-0.554 1.238,-1.238l0,-36.954Z" style="fill:none;stroke-width:1px;stroke:url(#_Linear7);"/><path d="M262.839,56.689c0,-0.683 -0.555,-1.238 -1.238,-1.238l-2.476,0c-0.683,0 -1.238,0.555 -1.238,1.238l0,36.954c0,0.684 0.555,1.238 1.238,1.238l2.476,0c0.683,0 1.238,-0.554 1.238,-1.238l0,-36.954Z" style="fill:none;stroke-width:1px;stroke:url(#_Linear8);"/><path d="M203.742,58.375c0,-1.614 -1.31,-2.924 -2.924,-2.924l-5.847,0c-1.613,0 -2.923,1.31 -2.923,2.924l0,33.583c0,1.613 1.31,2.923 2.923,2.923l5.847,0c1.614,0 2.924,-1.31 2.924,-2.923l0,-33.583Z" style="fill:none;stroke-width:1px;stroke:url(#_Linear9);"/><path d="M92.866,119.76c0,-5.44 -4.417,-9.858 -9.858,-9.858l-71.636,0c-5.441,0 -9.858,4.418 -9.858,9.858l0,19.715c0,5.441 4.417,9.858 9.858,9.858l71.636,0c5.441,0 9.858,-4.417 9.858,-9.858l0,-19.715Z" style="fill:none;stroke-width:1px;stroke:url(#_Linear10);"/><path d="M197.419,119.76c0,-5.44 -4.417,-9.858 -9.857,-9.858l-71.636,0c-5.441,0 -9.858,4.418 -9.858,9.858l0,19.715c0,5.441 4.417,9.858 9.858,9.858l71.636,0c5.44,0 9.857,-4.417 9.857,-9.858l0,-19.715Z" style="fill:none;stroke-width:1px;stroke:url(#_Linear11);"/></g><defs><linearGradient id="_Linear1" x1="0" y1="0" x2="1" y2="0" gradientUnits="userSpaceOnUse" gradientTransform="matrix(193.877,125.802,-44.5941,546.935,3.54229,3.81599)"><stop offset="0%" style="stop-color:#fca73e;stop-opacity:1"/><stop offset="100%" style="stop-color:#ff442b;stop-opacity:1"/></linearGradient><linearGradient id="_Linear2" x1="0" y1="0" x2="1" y2="0" gradientUnits="userSpaceOnUse" gradientTransform="matrix(193.877,125.802,-44.5941,546.935,3.54229,3.81599)"><stop offset="0%" style="stop-color:#fca73e;stop-opacity:1"/><stop offset="100%" style="stop-color:#ff442b;stop-opacity:1"/></linearGradient><linearGradient id="_Linear3" x1="0" y1="0" x2="1" y2="0" gradientUnits="userSpaceOnUse" gradientTransform="matrix(193.877,125.802,-44.5941,546.935,3.54229,3.81599)"><stop offset="0%" style="stop-color:#fca73e;stop-opacity:1"/><stop offset="100%" style="stop-color:#ff442b;stop-opacity:1"/></linearGradient><linearGradient id="_Linear4" x1="0" y1="0" x2="1" y2="0" gradientUnits="userSpaceOnUse" gradientTransform="matrix(193.877,125.802,-44.5941,546.935,3.54229,3.81599)"><stop offset="0%" style="stop-color:#fca73e;stop-opacity:1"/><stop offset="100%" style="stop-color:#ff442b;stop-opacity:1"/></linearGradient><linearGradient id="_Linear5" x1="0" y1="0" x2="1" y2="0" gradientUnits="userSpaceOnUse" gradientTransform="matrix(193.877,125.802,-44.5941,546.935,3.54229,3.81599)"><stop offset="0%" style="stop-color:#fca73e;stop-opacity:1"/><stop offset="100%" style="stop-color:#ff442b;stop-opacity:1"/></linearGradient><linearGradient id="_Linear6" x1="0" y1="0" x2="1" y2="0" gradientUnits="userSpaceOnUse" gradientTransform="matrix(193.877,125.802,-44.5941,546.935,9.54229,3.81599)"><stop offset="0%" style="stop-color:#fca73e;stop-opacity:1"/><stop offset="100%" style="stop-color:#ff442b;stop-opacity:1"/></linearGradient><linearGradient id="_Linear7" x1="0" y1="0" x2="1" y2="0" gradientUnits="userSpaceOnUse" gradientTransform="matrix(193.877,125.802,-44.5941,546.935,16.2233,3.81599)"><stop offset="0%" style="stop-color:#fca73e;stop-opacity:1"/><stop offset="100%" style="stop-color:#ff442b;stop-opacity:1"/></linearGradient><linearGradient id="_Linear8" x1="0" y1="0" x2="1" y2="0" gradientUnits="userSpaceOnUse" gradientTransform="matrix(193.877,125.802,-44.5941,546.935,25.4694,3.81599)"><stop offset="0%" style="stop-color:#fca73e;stop-opacity:1"/><stop offset="100%" style="stop-color:#ff442b;stop-opacity:1"/></linearGradient><linearGradient id="_Linear9" x1="0" y1="0" x2="1" y2="0" gradientUnits="userSpaceOnUse" gradientTransform="matrix(193.877,125.802,-44.5941,546.935,-1.45771,3.81599)"><stop offset="0%" style="stop-color:#fca73e;stop-opacity:1"/><stop offset="100%" style="stop-color:#ff442b;stop-opacity:1"/></linearGradient><linearGradient id="_Linear10" x1="0" y1="0" x2="1" y2="0" gradientUnits="userSpaceOnUse" gradientTransform="matrix(193.877,125.802,-44.5941,546.935,3.54229,3.81599)"><stop offset="0%" style="stop-color:#fca73e;stop-opacity:1"/><stop offset="100%" style="stop-color:#ff442b;stop-opacity:1"/></linearGradient><linearGradient id="_Linear11" x1="0" y1="0" x2="1" y2="0" gradientUnits="userSpaceOnUse" gradientTransform="matrix(193.877,125.802,-44.5941,546.935,3.54229,3.81599)"><stop offset="0%" style="stop-color:#fca73e;stop-opacity:1"/><stop offset="100%" style="stop-color:#ff442b;stop-opacity:1"/></linearGradient></defs></svg>