<?xml version="1.0" standalone="no"?><!DOCTYPE svg PUBLIC "-//W3C//DTD SVG 1.1//EN" "http://www.w3.org/Graphics/SVG/1.1/DTD/svg11.dtd"><svg width="100%" height="100%" viewBox="0 0 230 85" version="1.1" xmlns="http://www.w3.org/2000/svg" xmlns:xlink="http://www.w3.org/1999/xlink" xml:space="preserve" style="fill-rule:evenodd;clip-rule:evenodd;stroke-linejoin:round;stroke-miterlimit:1.41421;"><path d="M208.604,84.402l-187.208,0c-11.59,0 -21,-9.41 -21,-21l0,-42c0,-11.59 9.41,-21 21,-21l187.208,0c11.59,0 21,9.41 21,21l0,42c0,11.59 -9.41,21 -21,21ZM45.701,18.097c-13.423,0 -24.305,10.881 -24.305,24.305c0,13.423 10.882,24.304 24.305,24.304c13.423,0 24.305,-10.881 24.305,-24.304c0,-13.424 -10.882,-24.305 -24.305,-24.305ZM104.793,51.799l0,8.766c-1.603,0.648 -3.553,0.972 -5.85,0.972c-3.547,0 -6.236,-0.947 -8.066,-2.84c-1.831,-1.893 -2.746,-4.715 -2.746,-8.467c0,-3.445 0.964,-6.182 2.891,-8.211c1.927,-2.03 4.533,-3.045 7.819,-3.045c2.319,0 4.559,0.501 6.719,1.501l0.699,-1.569c-2.16,-1 -4.599,-1.501 -7.316,-1.501c-2.512,0 -4.738,0.535 -6.676,1.604c-1.939,1.068 -3.428,2.583 -4.469,4.544c-1.04,1.962 -1.56,4.21 -1.56,6.745c0,4.07 1.049,7.217 3.146,9.44c2.098,2.222 5.114,3.334 9.048,3.334c3.012,0 5.724,-0.512 8.134,-1.535l0,-11.375l-9.192,0l0,1.637l7.419,0ZM122.085,45.66l5.441,0l0,-1.467l-5.441,0l0,-4.485l-0.869,0l-0.853,4.195l-2.746,0.767l0,0.99l2.746,0l0,11.971c0,1.876 0.389,3.252 1.168,4.127c0.779,0.876 1.987,1.314 3.624,1.314c1.069,0 2.012,-0.137 2.831,-0.41l0,-1.364c-0.796,0.182 -1.728,0.273 -2.797,0.273c-1.069,0 -1.853,-0.341 -2.353,-1.023c-0.501,-0.683 -0.751,-1.734 -0.751,-3.155l0,-11.733ZM154.061,44.193l-1.671,0l0,12.108c0,4.514 2.109,6.771 6.327,6.771c3.081,0 5.224,-0.967 6.429,-2.9l0.103,0l0.307,2.559l1.432,0l0,-18.538l-1.671,0l0,10.232c0,2.513 -0.52,4.326 -1.56,5.44c-1.041,1.115 -2.664,1.672 -4.869,1.672c-1.649,0 -2.865,-0.424 -3.65,-1.271c-0.784,-0.847 -1.177,-2.203 -1.177,-4.067l0,-12.006ZM174.884,47.075l-0.119,0l0.051,-1.45c0.045,-0.841 0.068,-1.762 0.068,-2.762l0,-6.668l-1.688,0l0,26.536l1.057,0l0.478,-2.797l0.153,0c0.614,1 1.45,1.773 2.507,2.319c1.057,0.546 2.246,0.819 3.564,0.819c2.502,0 4.443,-0.836 5.824,-2.507c1.382,-1.672 2.072,-4.048 2.072,-7.129c0,-3.138 -0.656,-5.522 -1.969,-7.154c-1.314,-1.631 -3.266,-2.447 -5.858,-2.447c-1.399,0 -2.595,0.261 -3.59,0.784c-0.995,0.523 -1.845,1.342 -2.55,2.456ZM114.087,62.731l0,-18.538l-1.688,0l0,18.538l1.688,0ZM133.716,47.007l-0.119,0l0.085,-2.371l0,-8.441l-1.688,0l0,26.536l1.688,0l0,-10.233c0,-2.512 0.514,-4.329 1.543,-5.449c1.029,-1.119 2.652,-1.679 4.869,-1.679c1.649,0 2.865,0.423 3.65,1.27c0.784,0.847 1.176,2.203 1.176,4.068l0,12.023l1.672,0l0,-12.126c0,-4.513 -2.104,-6.77 -6.31,-6.77c-1.569,0 -2.882,0.25 -3.94,0.75c-1.057,0.5 -1.932,1.308 -2.626,2.422ZM60.134,56.835c-1.876,1.876 -4.059,3.348 -6.489,4.376c-0.617,0.261 -1.244,0.491 -1.88,0.688l0,-3.642c0,-1.915 -0.657,-3.323 -1.97,-4.225c0.823,-0.079 1.578,-0.19 2.267,-0.333c0.688,-0.142 1.416,-0.348 2.183,-0.617c0.768,-0.269 1.456,-0.589 2.065,-0.961c0.61,-0.372 1.195,-0.854 1.757,-1.448c0.561,-0.593 1.032,-1.266 1.412,-2.017c0.38,-0.752 0.68,-1.654 0.902,-2.706c0.221,-1.052 0.332,-2.211 0.332,-3.477c0,-2.453 -0.799,-4.541 -2.397,-6.266c0.728,-1.899 0.649,-3.964 -0.238,-6.195l-0.593,-0.071c-0.411,-0.048 -1.151,0.126 -2.219,0.522c-1.068,0.395 -2.267,1.044 -3.596,1.946c-1.883,-0.522 -3.837,-0.783 -5.862,-0.783c-2.042,0 -3.988,0.261 -5.839,0.783c-0.839,-0.569 -1.634,-1.04 -2.386,-1.412c-0.751,-0.372 -1.353,-0.625 -1.804,-0.76c-0.451,-0.134 -0.87,-0.217 -1.258,-0.249c-0.387,-0.031 -0.636,-0.039 -0.747,-0.024c-0.111,0.016 -0.19,0.032 -0.238,0.048c-0.886,2.247 -0.965,4.312 -0.237,6.195c-1.598,1.725 -2.397,3.813 -2.397,6.266c0,1.266 0.111,2.425 0.332,3.477c0.222,1.052 0.522,1.954 0.902,2.706c0.38,0.751 0.851,1.424 1.412,2.017c0.562,0.594 1.148,1.076 1.757,1.448c0.609,0.372 1.297,0.692 2.065,0.961c0.767,0.269 1.495,0.475 2.183,0.617c0.689,0.143 1.444,0.254 2.267,0.333c-1.298,0.886 -1.946,2.294 -1.946,4.225l0,3.713c-0.717,-0.213 -1.423,-0.465 -2.117,-0.759c-2.431,-1.028 -4.614,-2.5 -6.49,-4.376c-1.876,-1.876 -3.348,-4.059 -4.376,-6.489c-1.063,-2.514 -1.602,-5.187 -1.602,-7.944c0,-2.758 0.539,-5.431 1.602,-7.945c1.028,-2.43 2.501,-4.613 4.376,-6.489c1.876,-1.876 4.06,-3.348 6.49,-4.376c2.514,-1.063 5.187,-1.603 7.944,-1.603c2.757,0 5.43,0.54 7.944,1.603c2.43,1.028 4.614,2.5 6.49,4.376c1.875,1.876 3.348,4.059 4.376,6.489c1.063,2.514 1.602,5.187 1.602,7.945c0,2.757 -0.539,5.43 -1.602,7.944c-1.028,2.43 -2.501,4.613 -4.377,6.489ZM180.989,45.37c-2.182,0 -3.746,0.625 -4.689,1.876c-0.944,1.25 -1.416,3.314 -1.416,6.19l0,0.29c0,2.797 0.492,4.804 1.475,6.02c0.984,1.217 2.516,1.825 4.596,1.825c2.024,0 3.548,-0.708 4.571,-2.123c1.023,-1.416 1.535,-3.431 1.535,-6.046c0,-5.355 -2.024,-8.032 -6.072,-8.032ZM112.16,39.043c0,-1.092 0.358,-1.638 1.074,-1.638c0.353,0 0.628,0.143 0.827,0.427c0.199,0.284 0.299,0.688 0.299,1.211c0,0.511 -0.1,0.915 -0.299,1.21c-0.199,0.296 -0.474,0.444 -0.827,0.444c-0.716,0 -1.074,-0.552 -1.074,-1.654ZM92.043,24.536l0,3.077c-0.661,0.159 -1.338,0.239 -2.03,0.239c-1.276,0 -2.244,-0.349 -2.902,-1.046c-0.659,-0.697 -0.988,-1.72 -0.988,-3.069c0,-1.286 0.342,-2.29 1.025,-3.015c0.684,-0.725 1.634,-1.087 2.851,-1.087c0.834,0 1.702,0.191 2.605,0.574l0.451,-1.025c-0.921,-0.392 -1.914,-0.588 -2.981,-0.588c-1.053,0 -1.971,0.206 -2.755,0.619c-0.784,0.412 -1.384,1.009 -1.801,1.791c-0.417,0.781 -0.625,1.692 -0.625,2.731c0,1.622 0.421,2.883 1.264,3.783c0.843,0.9 2.021,1.35 3.534,1.35c0.72,0 1.354,-0.043 1.901,-0.13c0.547,-0.086 1.084,-0.214 1.613,-0.382l0,-4.861l-3.397,0l0,1.039l2.235,0ZM120.412,26.074c0,0.88 -0.319,1.566 -0.957,2.058c-0.638,0.492 -1.504,0.738 -2.598,0.738c-1.184,0 -2.096,-0.152 -2.734,-0.458l0,-1.121c0.41,0.173 0.857,0.31 1.34,0.41c0.483,0.101 0.961,0.151 1.435,0.151c0.775,0 1.359,-0.147 1.75,-0.441c0.392,-0.294 0.588,-0.703 0.588,-1.227c0,-0.347 -0.069,-0.63 -0.208,-0.851c-0.139,-0.221 -0.372,-0.425 -0.697,-0.612c-0.326,-0.187 -0.822,-0.399 -1.487,-0.636c-0.93,-0.332 -1.594,-0.727 -1.993,-1.182c-0.399,-0.456 -0.598,-1.051 -0.598,-1.785c0,-0.77 0.289,-1.383 0.868,-1.838c0.579,-0.456 1.344,-0.684 2.297,-0.684c0.993,0 1.907,0.182 2.741,0.547l-0.362,1.012c-0.825,-0.347 -1.627,-0.52 -2.406,-0.52c-0.616,0 -1.096,0.132 -1.443,0.396c-0.346,0.265 -0.519,0.632 -0.519,1.101c0,0.346 0.064,0.63 0.191,0.851c0.128,0.221 0.343,0.424 0.646,0.609c0.303,0.184 0.767,0.388 1.391,0.611c1.048,0.374 1.77,0.775 2.164,1.203c0.394,0.429 0.591,0.985 0.591,1.668ZM184.786,23.723c0,1.6 -0.404,2.857 -1.213,3.773c-0.809,0.916 -1.934,1.374 -3.374,1.374c-1.472,0 -2.608,-0.45 -3.407,-1.35c-0.8,-0.9 -1.2,-2.17 -1.2,-3.811c0,-1.627 0.401,-2.888 1.203,-3.783c0.802,-0.896 1.941,-1.344 3.418,-1.344c1.435,0 2.557,0.456 3.363,1.367c0.807,0.912 1.21,2.17 1.21,3.774ZM101.176,19.772l0,-1.033l-5.572,0l0,9.995l5.572,0l0,-1.039l-4.409,0l0,-3.678l4.142,0l0,-1.026l-4.142,0l0,-3.219l4.409,0ZM106.467,28.734l0,-8.962l3.165,0l0,-1.033l-7.492,0l0,1.033l3.165,0l0,8.962l1.162,0ZM125.532,28.734l0,-8.962l3.165,0l0,-1.033l-7.492,0l0,1.033l3.165,0l0,8.962l1.162,0ZM136.709,28.734l-3.931,-10.036l-0.977,0l-3.951,10.036l1.175,0l1.231,-3.179l4.006,0l1.244,3.179l1.203,0ZM140.824,18.739l-2.741,0l0,9.995l1.162,0l0,-4.157l2.085,0l2.42,4.157l1.374,0l-2.714,-4.492c1.34,-0.464 2.01,-1.358 2.01,-2.679c0,-0.944 -0.293,-1.65 -0.878,-2.119c-0.586,-0.47 -1.492,-0.705 -2.718,-0.705ZM152.979,19.772l0,-1.033l-7.493,0l0,1.033l3.165,0l0,8.962l1.162,0l0,-8.962l3.166,0ZM160.054,28.734l0,-1.039l-4.409,0l0,-3.678l4.142,0l0,-1.026l-4.142,0l0,-3.219l4.409,0l0,-1.033l-5.572,0l0,9.995l5.572,0ZM165.037,28.734c1.682,0 2.97,-0.437 3.866,-1.309c0.895,-0.873 1.343,-2.134 1.343,-3.784c0,-1.545 -0.431,-2.748 -1.292,-3.61c-0.861,-0.861 -2.069,-1.292 -3.623,-1.292l-3.062,0l0,9.995l2.768,0ZM194.821,28.734l0,-9.995l-1.087,0l0,5.736c-0.009,0.287 0.003,0.764 0.035,1.432c0.031,0.668 0.052,1.063 0.061,1.186l-0.055,0l-5.448,-8.354l-1.312,0l0,9.995l1.073,0l0,-5.681c0,-0.82 -0.037,-1.723 -0.109,-2.707l0.054,0l5.462,8.388l1.326,0ZM176.822,23.723c0,1.353 0.289,2.38 0.865,3.079c0.577,0.7 1.414,1.05 2.512,1.05c1.108,0 1.944,-0.349 2.509,-1.046c0.565,-0.697 0.848,-1.725 0.848,-3.083c0,-1.345 -0.282,-2.364 -0.845,-3.059c-0.562,-0.695 -1.395,-1.043 -2.498,-1.043c-1.108,0 -1.949,0.35 -2.526,1.05c-0.576,0.699 -0.865,1.717 -0.865,3.052ZM165.119,19.744c1.29,0 2.262,0.331 2.916,0.992c0.654,0.66 0.981,1.642 0.981,2.946c0,1.335 -0.349,2.343 -1.046,3.025c-0.698,0.681 -1.739,1.022 -3.124,1.022l-1.415,0l0,-7.985l1.688,0ZM133.899,24.509l-3.233,0l1.176,-3.097c0.187,-0.524 0.33,-1.005 0.43,-1.442c0.16,0.57 0.315,1.05 0.465,1.442l1.162,3.097ZM140.756,19.758c0.861,0 1.487,0.146 1.876,0.438c0.39,0.291 0.585,0.767 0.585,1.428c0,0.652 -0.192,1.141 -0.574,1.467c-0.383,0.325 -0.985,0.488 -1.805,0.488l-1.593,0l0,-3.821l1.511,0Z" style="fill:#fafafa;"/></svg>